<?xml version="1.0" encoding="UTF-8" standalone="no"?>
<!-- Created with Inkscape (http://www.inkscape.org/) -->

<svg
   xmlns:dc="http://purl.org/dc/elements/1.1/"
   xmlns:cc="http://creativecommons.org/ns#"
   xmlns:rdf="http://www.w3.org/1999/02/22-rdf-syntax-ns#"
   xmlns:svg="http://www.w3.org/2000/svg"
   xmlns="http://www.w3.org/2000/svg"
   xmlns:sodipodi="http://sodipodi.sourceforge.net/DTD/sodipodi-0.dtd"
   xmlns:inkscape="http://www.inkscape.org/namespaces/inkscape"
   id="svg3205"
   version="1.1"
   inkscape:version="0.48.4 r9939"
   width="900"
   height="540"
   xml:space="preserve"
   sodipodi:docname="balon v3.pdf"
   inkscape:export-filename="/home/tayyar/Desktop/dugun dosyalar/balon v3.png"
   inkscape:export-xdpi="300"
   inkscape:export-ydpi="300"><metadata
     id="metadata3211"><rdf:RDF><cc:Work
         rdf:about=""><dc:format>image/svg+xml</dc:format><dc:type
           rdf:resource="http://purl.org/dc/dcmitype/StillImage" /><dc:title></dc:title></cc:Work></rdf:RDF></metadata><defs
     id="defs3209"><clipPath
       clipPathUnits="userSpaceOnUse"
       id="clipPath3219"><path
         d="m 0,432 742.5,0 0,-261.75 L 0,170.25 0,432 z"
         id="path3221" /></clipPath><clipPath
       clipPathUnits="userSpaceOnUse"
       id="clipPath3229"><path
         d="M 0,0 990,0 990,349 0,349 0,0 z"
         id="path3231" /></clipPath></defs><sodipodi:namedview
     pagecolor="#ffffff"
     bordercolor="#666666"
     borderopacity="1"
     objecttolerance="10"
     gridtolerance="10"
     guidetolerance="10"
     inkscape:pageopacity="0"
     inkscape:pageshadow="2"
     inkscape:window-width="1366"
     inkscape:window-height="713"
     id="namedview3207"
     showgrid="false"
     inkscape:zoom="1.5466667"
     inkscape:cx="384.38211"
     inkscape:cy="347.55078"
     inkscape:window-x="0"
     inkscape:window-y="27"
     inkscape:window-maximized="1"
     inkscape:current-layer="g3227" /><g
     id="g3213"
     inkscape:groupmode="layer"
     inkscape:label="balon v3"
     transform="matrix(1.25,0,0,-1.25,0,540)"><g
       id="g3215"><g
         id="g3217"
         clip-path="url(#clipPath3219)"><g
           id="g3223"
           transform="matrix(0.75,0,0,-0.75,0,432)"><g
             id="g3225"
             transform="translate(-13.793103,13.793103)"><g
               id="g3227"
               clip-path="url(#clipPath3229)"><g
                 id="g3233"
                 transform="translate(419.956,123.833)"
                 style="fill:#000000"><path
                   d="m 76.199,52.257 c -1.345,2.135 -2.782,4.259 -4.341,6.354 -1.301,8.205 -1.791,16.39 -1.346,23.808 0.655,-9.599 2.586,-20.099 5.687,-30.162 z M 136.086,39.424 C 141.022,7.051 113.58,-8.938 92.983,10.4 c -2.789,2.616 -5.348,5.867 -7.676,9.563 0.521,3.214 0.543,6.733 -0.063,10.525 -0.024,0.159 -0.077,0.323 -0.104,0.484 4.223,-7.56 9.283,-14.036 15.164,-18.468 17.484,-13.168 34.926,4.399 31.146,25.93 -13.527,-3.2 -21.475,19.366 -11.566,21.672 8.518,1.993 12.836,-9.419 14.61,-15.354 15.69,5.204 11.209,28.906 -3.666,32.227 -10.156,2.274 -23.265,-1.272 -35.208,0.458 -13.354,1.938 -28.04,7.791 -27.85,22.139 2.412,-8.589 10.893,-15.211 22.316,-17.188 17.063,-2.955 43.436,8.319 55.124,-5.085 8.497,-9.753 6.165,-34.196 -9.124,-37.879 z m -14.745,13.409 c -1.917,-4.316 2.56,-7.264 7.302,-7.682 0.646,2.807 -1.562,8.397 -7.302,7.682 z"
                   style="fill:#000000;fill-opacity:1;fill-rule:nonzero;stroke:none"
                   id="path3235"
                   inkscape:connector-curvature="0" /></g><g
                 id="g3237"
                 transform="translate(419.956,123.833)"
                 style="fill:#000000"><path
                   d="M 37.055,11.047 C 25.438,0.444 3.885,12.208 0.569,24.709 -3.986,41.898 20.127,57.43 27.24,73.216 32.005,83.788 31.266,94.523 25.505,101.335 37.496,93.452 34.115,78.009 28.237,65.86 22.983,55.001 12.701,46.13 8.893,36.443 3.311,22.262 20.432,5.267 33.532,15.351 29.612,20.146 22.58,30.119 28.998,36.055 36.465,42.968 50.702,23.742 40.476,14.334 56.186,-0.863 80.512,3.742 79.399,25.603 78.27,47.662 58.082,73.91 38.18,89.453 59.406,76.871 81.921,51.191 85.244,30.485 89.721,2.595 61.102,-11.177 37.055,11.047 z m -2.848,19.724 c -3.806,-4.35 -0.412,-9.311 2.271,-10.349 2.312,4.165 2.376,9.521 -2.271,10.349 z"
                   style="fill:#000000;fill-opacity:1;fill-rule:nonzero;stroke:none"
                   id="path3239"
                   inkscape:connector-curvature="0" /></g><g
                 id="g3241"
                 transform="matrix(0.94,0,0,0.94,339.595,316.98)"
                 style="fill:#000000"><path
                   d="m 21.896,-80.376 -0.272,0 c -0.907,0 -1.791,0.385 -2.652,1.156 -0.816,0.771 -1.405,1.564 -1.768,2.38 -1.179,-0.453 -1.768,-1.269 -1.768,-2.448 0,-1.179 0.544,-2.357 1.632,-3.536 1.088,-1.224 2.131,-1.836 3.128,-1.836 0.997,0 1.745,0.227 2.244,0.68 0.499,0.453 0.748,1.043 0.748,1.768 0,0.68 -0.431,1.292 -1.292,1.836 m -9.248,8.976 3.4,0.068 0.68,0 c -0.725,0.544 -1.7,2.017 -2.924,4.42 -1.179,2.403 -2.063,4.216 -2.652,5.44 -0.589,1.224 -1.269,2.879 -2.04,4.964 -0.725,2.085 -1.088,3.785 -1.088,5.1 0,1.315 0.431,1.972 1.292,1.972 0.589,0 1.405,-0.385 2.448,-1.156 1.088,-0.816 1.972,-1.655 2.652,-2.516 0.68,-0.907 1.428,-2.04 2.244,-3.4 0.861,-1.36 1.587,-2.539 2.176,-3.536 0.635,-0.997 0.997,-1.496 1.088,-1.496 0.272,0 0.408,0.431 0.408,1.292 0,0.816 -0.227,1.609 -0.68,2.38 -1.677,2.811 -3.219,5.168 -4.624,7.072 -1.36,1.859 -2.924,3.491 -4.692,4.896 -1.768,1.405 -3.377,2.108 -4.828,2.108 -2.539,0 -3.808,-1.768 -3.808,-5.304 0,-5.485 1.881,-11.56 5.644,-18.224 1.587,-2.72 3.355,-4.08 5.304,-4.08"
                   style="fill:#000000;fill-opacity:1;fill-rule:nonzero;stroke:none"
                   id="path3243"
                   inkscape:connector-curvature="0" /></g><g
                 id="g3245"
                 transform="matrix(0.94,0,0,0.94,339.595,316.98)"
                 style="fill:#000000"><path
                   d="m 35.414,-71.536 3.468,0.068 0.68,0 c -0.68,0.499 -1.655,1.972 -2.924,4.42 -1.224,2.448 -2.153,4.307 -2.788,5.576 -0.589,1.224 -1.269,2.901 -2.04,5.032 -0.725,2.085 -1.088,3.785 -1.088,5.1 0,1.315 0.454,1.972 1.36,1.972 0.59,-0.045 1.406,-0.453 2.448,-1.224 1.088,-0.816 1.972,-1.655 2.652,-2.516 0.725,-0.907 1.496,-2.04 2.312,-3.4 0.861,-1.405 1.587,-2.607 2.176,-3.604 0.635,-1.043 0.997,-1.564 1.088,-1.564 0.317,0 0.476,0.431 0.476,1.292 0,0.816 -0.227,1.609 -0.68,2.38 -1.949,3.219 -3.559,5.689 -4.828,7.412 -1.269,1.723 -2.811,3.309 -4.624,4.76 -1.768,1.405 -3.377,2.108 -4.828,2.108 -2.584,0 -3.876,-1.904 -3.876,-5.712 0,-2.584 0.499,-5.508 1.496,-8.772 0.998,-3.264 2.471,-6.415 4.42,-9.452 -1.586,1.269 -3.173,1.904 -4.76,1.904 -0.498,0 -1.02,-0.113 -1.564,-0.34 -3.218,6.347 -4.964,9.52 -5.236,9.52 -0.226,0 -0.34,-0.363 -0.34,-1.088 0,-0.771 0.272,-1.813 0.816,-3.128 0.59,-1.36 1.202,-2.652 1.836,-3.876 0.68,-1.224 1.043,-1.904 1.088,-2.04 -1.632,-0.816 -2.448,-2.131 -2.448,-3.944 0,-0.907 0.272,-1.723 0.816,-2.448 0.59,-0.725 1.383,-1.088 2.38,-1.088 0.998,0 1.814,0.317 2.448,0.952 -0.09,0.272 -0.136,0.68 -0.136,1.224 0,1.224 0.431,2.199 1.292,2.924 0.907,0.68 1.995,1.02 3.264,1.02 0.363,0 0.635,-0.023 0.816,-0.068 1.587,-2.267 3.196,-3.4 4.828,-3.4"
                   style="fill:#000000;fill-opacity:1;fill-rule:nonzero;stroke:none"
                   id="path3247"
                   inkscape:connector-curvature="0" /></g><g
                 id="g3249"
                 transform="matrix(0.94,0,0,0.94,339.595,316.98)"
                 style="fill:#000000"><path
                   d="m 67.234,-61.88 c 0.272,0 0.408,0.453 0.408,1.36 0,0.861 -0.363,1.904 -1.088,3.128 -0.725,1.224 -1.451,2.38 -2.176,3.468 -0.68,1.088 -1.609,2.357 -2.788,3.808 -1.179,1.451 -2.335,2.607 -3.468,3.468 -2.856,2.085 -5.735,3.128 -8.636,3.128 -2.856,0 -5.168,-0.725 -6.936,-2.176 -1.768,-1.496 -2.652,-3.763 -2.652,-6.8 0,-4.624 1.7,-8.908 5.1,-12.852 3.4,-3.944 7.367,-5.916 11.9,-5.916 2.04,0 3.672,0.544 4.896,1.632 1.224,1.043 1.836,2.312 1.836,3.808 0,2.539 -1.201,4.579 -3.604,6.12 -2.403,1.541 -5.236,2.312 -8.5,2.312 -1.904,0 -3.309,-0.249 -4.216,-0.748 -0.861,2.312 -1.292,4.352 -1.292,6.12 0,3.808 1.609,5.712 4.828,5.712 1.904,0 3.853,-0.725 5.848,-2.176 2.04,-1.496 3.763,-3.151 5.168,-4.964 1.451,-1.859 3.083,-4.511 4.896,-7.956 0.181,-0.317 0.34,-0.476 0.476,-0.476 m -7.208,-5.372 c 0,-1.315 -0.635,-1.972 -1.904,-1.972 -1.768,0 -3.74,1.088 -5.916,3.264 -2.176,2.176 -3.264,3.944 -3.264,5.304 0,0.907 0.861,1.36 2.584,1.36 1.723,0 3.513,-0.839 5.372,-2.516 1.904,-1.677 2.947,-3.491 3.128,-5.44"
                   style="fill:#000000;fill-opacity:1;fill-rule:nonzero;stroke:none"
                   id="path3251"
                   inkscape:connector-curvature="0" /></g><g
                 id="g3253"
                 transform="matrix(0.94,0,0,0.94,339.595,316.98)"
                 style="fill:#000000"><path
                   d="m 112.007,-57.868 c -1.678,2.811 -3.219,5.168 -4.624,7.072 -1.36,1.859 -2.924,3.491 -4.692,4.896 -1.768,1.405 -3.378,2.108 -4.828,2.108 -2.675,0 -4.012,-1.541 -4.012,-4.624 0,-3.581 1.428,-8.681 4.284,-15.3 0.634,-1.677 0.952,-2.833 0.952,-3.468 0,-0.907 -0.408,-1.36 -1.224,-1.36 -0.499,0 -1.36,0.295 -2.584,0.884 -1.224,0.589 -2.403,1.473 -3.536,2.652 -1.088,1.179 -1.972,2.267 -2.652,3.264 -0.68,0.997 -1.428,2.493 -2.244,4.488 -0.816,1.995 -1.36,3.4 -1.632,4.216 -1.315,4.08 -2.199,7.027 -2.652,8.84 l -6.664,0 c 2.357,-6.528 3.966,-10.925 4.828,-13.192 0.906,-2.267 1.45,-3.672 1.632,-4.216 l 0.612,-1.904 c 0.498,-1.451 0.748,-2.652 0.748,-3.604 0,-0.952 -0.431,-1.428 -1.292,-1.428 -0.726,0 -1.723,0.317 -2.992,0.952 -1.224,0.635 -2.426,1.564 -3.604,2.788 -1.179,1.224 -2.176,2.652 -2.992,4.284 -0.771,1.587 -1.406,2.969 -1.904,4.148 -0.454,1.179 -0.93,2.629 -1.428,4.352 -0.499,1.677 -0.952,3.06 -1.36,4.148 -0.363,1.043 -0.748,2.267 -1.156,3.672 l -6.596,0 c 0.498,-1.904 1.042,-3.604 1.632,-5.1 l 4.42,-11.288 c 1.813,-4.533 2.72,-7.843 2.72,-9.928 0,-0.453 -0.046,-0.748 -0.136,-0.884 l 2.856,0 c 1.541,0 2.538,0.159 2.992,0.476 0.453,0.272 0.68,0.657 0.68,1.156 0,0.499 -0.272,1.655 -0.816,3.468 3.989,-3.627 7.978,-5.44 11.968,-5.44 2.402,0 3.604,0.997 3.604,2.992 0,0.861 -0.25,1.927 -0.748,3.196 4.125,-4.125 8.364,-6.188 12.716,-6.188 2.357,0 3.536,0.997 3.536,2.992 0,0.907 -0.159,1.768 -0.476,2.584 -0.318,0.816 -0.726,1.881 -1.224,3.196 -0.499,1.269 -0.907,2.335 -1.224,3.196 -0.318,0.816 -0.68,1.836 -1.088,3.06 -0.862,2.493 -1.292,4.352 -1.292,5.576 0,1.179 0.362,1.768 1.088,1.768 0.77,0 1.722,-0.499 2.856,-1.496 1.133,-0.997 1.972,-1.859 2.516,-2.584 0.589,-0.725 1.292,-1.745 2.108,-3.06 0.861,-1.36 1.586,-2.539 2.176,-3.536 0.589,-0.997 0.929,-1.496 1.02,-1.496 0.272,0 0.408,0.431 0.408,1.292 0,0.816 -0.227,1.609 -0.68,2.38"
                   style="fill:#000000;fill-opacity:1;fill-rule:nonzero;stroke:none"
                   id="path3255"
                   inkscape:connector-curvature="0" /></g><g
                 id="g3257"
                 transform="matrix(0.94,0,0,0.94,451.03,326.98)"
                 style="fill:#000000"><path
                   d="m 26.316,-67.252 -2.992,-0.476 c -4.125,0 -7.639,1.587 -10.54,4.76 -2.901,3.128 -4.352,6.279 -4.352,9.452 0,2.493 0.816,4.579 2.448,6.256 1.632,1.677 3.921,2.516 6.868,2.516 4.851,0 8.727,-1.292 11.628,-3.876 2.901,-2.584 4.352,-5.281 4.352,-8.092 0,-2.811 -1.247,-4.216 -3.74,-4.216 -0.771,0 -1.451,0.476 -2.04,1.428 -0.589,0.952 -0.907,1.791 -0.952,2.516 -0.725,-0.861 -1.088,-1.836 -1.088,-2.924 0,-1.133 0.612,-2.267 1.836,-3.4 1.269,-1.133 2.901,-2.017 4.896,-2.652 l 10.268,-3.128 c 4.579,-1.36 7.163,-2.743 7.752,-4.148 0.136,0.272 0.204,0.703 0.204,1.292 0,1.995 -0.68,3.536 -2.04,4.624 -1.36,1.088 -2.947,1.791 -4.76,2.108 -6.483,1.133 -10.789,2.244 -12.92,3.332 0.997,-0.272 1.768,-0.408 2.312,-0.408 1.587,0 2.811,0.499 3.672,1.496 0.907,0.997 1.36,2.199 1.36,3.604 0,3.083 -1.315,5.848 -3.944,8.296 -2.584,2.403 -5.531,4.148 -8.84,5.236 -3.264,1.088 -6.052,1.632 -8.364,1.632 -2.312,0 -4.329,-0.159 -6.052,-0.476 -1.677,-0.317 -3.332,-0.839 -4.964,-1.564 -1.632,-0.725 -2.947,-1.768 -3.944,-3.128 -0.997,-1.405 -1.496,-3.06 -1.496,-4.964 0,-4.624 1.904,-8.568 5.712,-11.832 3.808,-3.264 8.16,-5.009 13.056,-5.236 -1.632,-0.816 -2.924,-1.904 -3.876,-3.264 -0.907,-1.36 -1.36,-2.811 -1.36,-4.352 0,-2.765 0.997,-5.191 2.992,-7.276 1.995,-2.131 4.329,-3.649 7.004,-4.556 2.72,-0.952 5.395,-1.428 8.024,-1.428 2.629,0 4.805,0.657 6.528,1.972 1.768,1.269 2.652,2.811 2.652,4.624 0,1.768 -0.589,3.241 -1.768,4.42 -1.179,1.133 -2.471,1.7 -3.876,1.7 -0.589,0 -1.02,-0.113 -1.292,-0.34 2.04,-1.133 3.06,-2.765 3.06,-4.896 0,-2.675 -1.791,-4.012 -5.372,-4.012 -3.581,0 -6.619,1.156 -9.112,3.468 -2.493,2.312 -3.74,4.76 -3.74,7.344 0,1.904 0.589,3.355 1.768,4.352 1.179,0.997 2.493,1.541 3.944,1.632 l 1.36,0 c 1.224,0 1.836,0.249 1.836,0.748 0,0.363 -0.249,0.771 -0.748,1.224 -0.453,0.408 -0.907,0.612 -1.36,0.612"
                   style="fill:#000000;fill-opacity:1;fill-rule:nonzero;stroke:none"
                   id="path3259"
                   inkscape:connector-curvature="0" /></g><g
                 id="g3261"
                 transform="matrix(0.94,0,0,0.94,508.794,316.98)"
                 style="fill:#000000"><path
                   d="m 34.68,-57.868 c -5.576,9.384 -10.291,14.076 -14.144,14.076 -2.675,0 -4.012,-1.541 -4.012,-4.624 0,-3.581 1.428,-8.681 4.284,-15.3 0.635,-1.677 0.952,-2.833 0.952,-3.468 0,-0.907 -0.408,-1.36 -1.224,-1.36 -0.544,0 -1.473,0.317 -2.788,0.952 -1.269,0.635 -2.493,1.564 -3.672,2.788 -1.179,1.224 -2.176,2.652 -2.992,4.284 -0.771,1.587 -1.405,2.969 -1.904,4.148 -0.453,1.179 -0.929,2.629 -1.428,4.352 -0.499,1.677 -0.952,3.06 -1.36,4.148 -0.363,1.043 -0.748,2.267 -1.156,3.672 l -6.596,0 c 1.224,-3.128 2.969,-8.115 5.236,-14.96 2.312,-6.891 4.284,-12.285 5.916,-16.184 1.632,-3.944 3.219,-7.253 4.76,-9.928 1.587,-2.72 3.377,-4.987 5.372,-6.8 2.04,-1.813 4.171,-2.72 6.392,-2.72 2.267,0 3.4,1.065 3.4,3.196 0,1.496 -0.612,3.468 -1.836,5.916 -2.629,5.168 -7.027,11.152 -13.192,17.952 2.448,-1.768 4.375,-2.924 5.78,-3.468 1.451,-0.544 2.833,-0.816 4.148,-0.816 2.584,0 3.876,1.133 3.876,3.4 0,0.907 -0.159,1.745 -0.476,2.516 -0.317,0.771 -0.68,1.655 -1.088,2.652 -0.363,0.997 -0.68,1.813 -0.952,2.448 -0.227,0.635 -0.544,1.496 -0.952,2.584 -0.408,1.088 -0.725,2.017 -0.952,2.788 -0.589,1.904 -0.884,3.423 -0.884,4.556 0,1.133 0.385,1.7 1.156,1.7 2.72,0 6.12,-3.944 10.2,-11.832 0.136,-0.317 0.295,-0.476 0.476,-0.476 0.227,0 0.34,0.431 0.34,1.292 0,0.816 -0.227,1.655 -0.68,2.516 m -8.228,-35.224 c -1.587,0 -3.672,2.516 -6.256,7.548 -2.539,5.032 -5.032,10.812 -7.48,17.34 6.211,-7.299 10.449,-13.283 12.716,-17.952 1.269,-2.856 1.904,-4.715 1.904,-5.576 0,-0.907 -0.295,-1.36 -0.884,-1.36"
                   style="fill:#000000;fill-opacity:1;fill-rule:nonzero;stroke:none"
                   id="path3263"
                   inkscape:connector-curvature="0" /></g><g
                 id="g3265"
                 transform="matrix(0.94,0,0,0.94,508.794,316.98)"
                 style="fill:#000000"><path
                   d="m 60.01,-71.4 3.4,0.068 0.68,0 c -1.496,1.224 -3.332,4.329 -5.508,9.316 -2.176,4.941 -3.264,8.545 -3.264,10.812 0,1.179 0.408,1.768 1.224,1.768 2.629,0 5.984,-3.876 10.064,-11.628 0.181,-0.317 0.34,-0.476 0.476,-0.476 0.272,0 0.408,0.431 0.408,1.292 0,0.816 -0.227,1.609 -0.68,2.38 -5.576,9.384 -10.245,14.076 -14.008,14.076 -2.448,0 -3.672,-1.881 -3.672,-5.644 0,-2.811 0.476,-5.576 1.428,-8.296 -5.168,9.157 -9.951,13.736 -14.348,13.736 -3.037,0 -4.556,-2.085 -4.556,-6.256 0,-3.173 0.68,-6.392 2.04,-9.656 1.405,-3.264 3.4,-6.029 5.984,-8.296 2.584,-2.312 5.417,-3.468 8.5,-3.468 1.451,0 2.811,0.34 4.08,1.02 1.269,0.635 2.108,1.677 2.516,3.128 0.499,-1.043 1.269,-1.949 2.312,-2.72 1.043,-0.771 2.017,-1.156 2.924,-1.156 m -5.644,4.488 c -0.453,-1.451 -1.519,-2.176 -3.196,-2.176 -2.992,0 -5.893,2.085 -8.704,6.256 -2.811,4.125 -4.216,7.82 -4.216,11.084 0,1.405 0.544,2.108 1.632,2.108 1.179,0 2.561,-0.725 4.148,-2.176 1.587,-1.496 3.015,-3.241 4.284,-5.236 2.811,-4.443 4.828,-7.729 6.052,-9.86"
                   style="fill:#000000;fill-opacity:1;fill-rule:nonzero;stroke:none"
                   id="path3267"
                   inkscape:connector-curvature="0" /></g><g
                 id="g3269"
                 transform="matrix(0.94,0,0,0.94,508.794,316.98)"
                 style="fill:#000000"><path
                   d="m 92.559,-58.004 c -3.4,5.667 -6.483,9.611 -9.248,11.832 -2.766,2.221 -6.347,3.332 -10.744,3.332 -2.539,0 -4.67,-0.476 -6.392,-1.428 -1.723,-0.997 -2.584,-2.448 -2.584,-4.352 0,-1.088 0.317,-2.085 0.952,-2.992 0.634,-0.907 1.496,-1.36 2.584,-1.36 1.133,0 1.858,0.408 2.176,1.224 -0.862,0.861 -1.292,1.859 -1.292,2.992 0,2.267 1.269,3.4 3.808,3.4 1.496,0 2.788,-0.521 3.876,-1.564 1.133,-1.043 1.7,-2.176 1.7,-3.4 0,-1.269 -0.272,-2.38 -0.816,-3.332 -0.544,-0.952 -1.202,-1.791 -1.972,-2.516 -0.771,-0.725 -1.542,-1.451 -2.312,-2.176 -1.859,-1.768 -2.788,-3.785 -2.788,-6.052 0,-2.312 0.861,-4.239 2.584,-5.78 1.768,-1.587 4.17,-2.38 7.208,-2.38 1.904,0 3.513,0.34 4.828,1.02 1.314,0.68 1.972,1.745 1.972,3.196 0,1.405 -0.431,2.629 -1.292,3.672 -0.862,1.043 -2.04,1.564 -3.536,1.564 -1.451,0 -2.176,-0.68 -2.176,-2.04 0,-0.317 0.521,-0.793 1.564,-1.428 1.042,-0.635 1.564,-1.292 1.564,-1.972 0,-0.68 -0.295,-1.179 -0.884,-1.496 -0.544,-0.363 -1.338,-0.544 -2.38,-0.544 -1.043,0 -2.063,0.363 -3.06,1.088 -0.952,0.725 -1.428,1.677 -1.428,2.856 0,1.179 0.498,2.289 1.496,3.332 0.997,1.043 2.085,1.927 3.264,2.652 1.178,0.725 2.266,1.745 3.264,3.06 0.997,1.269 1.496,2.629 1.496,4.08 0,1.405 -0.34,2.675 -1.02,3.808 -0.635,1.133 -1.406,2.04 -2.312,2.72 2.538,-1.088 5.236,-3.808 8.092,-8.16 0.272,-0.363 0.748,-1.111 1.428,-2.244 1.586,-2.856 2.47,-4.284 2.652,-4.284 0.272,0 0.408,0.431 0.408,1.292 0,0.816 -0.227,1.609 -0.68,2.38"
                   style="fill:#000000;fill-opacity:1;fill-rule:nonzero;stroke:none"
                   id="path3271"
                   inkscape:connector-curvature="0" /></g><g
                 id="g3273"
                 transform="matrix(0.94,0,0,0.94,508.794,316.98)"
                 style="fill:#000000"><path
                   d="m 117.916,-71.4 3.4,0.068 0.68,0 c -1.496,1.224 -3.332,4.329 -5.508,9.316 -2.176,4.941 -3.264,8.545 -3.264,10.812 0,1.179 0.408,1.768 1.224,1.768 2.63,0 5.984,-3.876 10.064,-11.628 0.182,-0.317 0.34,-0.476 0.476,-0.476 0.272,0 0.408,0.431 0.408,1.292 0,0.816 -0.226,1.609 -0.68,2.38 -5.576,9.384 -10.245,14.076 -14.008,14.076 -2.448,0 -3.672,-1.881 -3.672,-5.644 0,-2.811 0.476,-5.576 1.428,-8.296 -5.168,9.157 -9.95,13.736 -14.348,13.736 -3.037,0 -4.556,-2.085 -4.556,-6.256 0,-3.173 0.68,-6.392 2.04,-9.656 1.406,-3.264 3.4,-6.029 5.984,-8.296 2.584,-2.312 5.418,-3.468 8.5,-3.468 1.451,0 2.811,0.34 4.08,1.02 1.27,0.635 2.108,1.677 2.516,3.128 0.499,-1.043 1.27,-1.949 2.312,-2.72 1.043,-0.771 2.018,-1.156 2.924,-1.156 m -5.644,4.488 c -0.453,-1.451 -1.518,-2.176 -3.196,-2.176 -2.992,0 -5.893,2.085 -8.704,6.256 -2.81,4.125 -4.216,7.82 -4.216,11.084 0,1.405 0.544,2.108 1.632,2.108 1.179,0 2.562,-0.725 4.148,-2.176 1.587,-1.496 3.015,-3.241 4.284,-5.236 2.811,-4.443 4.828,-7.729 6.052,-9.86"
                   style="fill:#000000;fill-opacity:1;fill-rule:nonzero;stroke:none"
                   id="path3275"
                   inkscape:connector-curvature="0" /></g><g
                 id="g3277"
                 transform="matrix(0.94,0,0,0.94,508.794,316.98)"
                 style="fill:#000000"><path
                   d="m 154.341,-57.868 c -1.677,2.811 -3.219,5.168 -4.624,7.072 -1.36,1.859 -2.924,3.491 -4.692,4.896 -1.768,1.405 -3.377,2.108 -4.828,2.108 -2.675,0 -4.012,-1.473 -4.012,-4.42 0,-2.947 1.7,-8.863 5.1,-17.748 0.181,-0.408 0.272,-0.839 0.272,-1.292 0,-0.952 -0.612,-1.428 -1.836,-1.428 -1.179,0 -2.357,0.385 -3.536,1.156 -1.133,0.725 -2.176,1.791 -3.128,3.196 -0.952,1.36 -1.813,2.765 -2.584,4.216 -0.771,1.405 -1.496,3.037 -2.176,4.896 -0.635,1.859 -1.156,3.423 -1.564,4.692 -0.363,1.224 -0.748,2.561 -1.156,4.012 -0.363,1.405 -0.567,2.176 -0.612,2.312 l -6.596,0 c 0,-0.952 1.995,-6.415 5.984,-16.388 1.632,-4.669 2.448,-7.933 2.448,-9.792 0,-0.453 -0.068,-0.793 -0.204,-1.02 l 2.856,0 c 1.587,0 2.607,0.159 3.06,0.476 0.453,0.317 0.68,0.748 0.68,1.292 0,0.544 -0.249,1.655 -0.748,3.332 3.808,-3.627 7.639,-5.44 11.492,-5.44 2.584,0 3.876,1.179 3.876,3.536 0,0.771 -0.113,1.541 -0.34,2.312 -0.227,0.771 -0.793,2.312 -1.7,4.624 -1.995,5.077 -2.992,8.477 -2.992,10.2 0,1.088 0.408,1.632 1.224,1.632 0.589,0 1.405,-0.408 2.448,-1.224 1.088,-0.816 1.972,-1.655 2.652,-2.516 0.725,-0.907 1.496,-2.017 2.312,-3.332 0.861,-1.36 1.587,-2.539 2.176,-3.536 0.589,-0.997 0.929,-1.496 1.02,-1.496 0.272,0 0.408,0.431 0.408,1.292 0,0.816 -0.227,1.609 -0.68,2.38"
                   style="fill:#000000;fill-opacity:1;fill-rule:nonzero;stroke:none"
                   id="path3279"
                   inkscape:connector-curvature="0" /></g><g
                 id="g3281"
                 transform="translate(409.23,325)"
                 style="fill:#000000"><path
                   d="m 8.132,-12.35 c 0.798,0 1.083,-0.057 1.235,-0.57 0.19,-0.646 0.57,-2.128 0.57,-2.489 0,-0.114 -0.019,-0.285 -0.114,-0.285 -0.114,0 -0.171,0.076 -0.228,0.285 -0.228,1.007 -0.836,1.691 -2.223,1.824 -0.684,0.076 -2.926,0.095 -3.249,0.095 l -1.387,0 c -0.095,0 -0.133,-0.057 -0.038,-0.133 2.356,-2.014 6.612,-5.529 6.612,-9.462 0,-2.014 -1.425,-3.838 -4.294,-3.838 -1.539,0 -2.641,0.342 -3.344,0.665 -0.171,0.114 -0.19,0.171 -0.19,0.285 0,0.589 0.095,2.166 0.114,2.337 0.019,0.171 0.076,0.247 0.152,0.247 0.095,0 0.171,-0.114 0.171,-0.285 0,-0.741 0.209,-1.406 0.665,-1.843 0.551,-0.513 1.121,-0.722 2.033,-0.722 1.273,0 3.021,0.798 3.021,3.515 0,3.648 -2.831,6.27 -6.631,9.652 -0.152,0.133 -0.342,0.304 -0.342,0.456 0,0.152 0.133,0.266 0.266,0.266 l 7.201,0"
                   style="fill:#000000;fill-opacity:1;fill-rule:nonzero;stroke:none"
                   id="path3283"
                   inkscape:connector-curvature="0" /></g><g
                 id="g3285"
                 transform="translate(409.23,325)"
                 style="fill:#000000"><path
                   d="m 18.816,-16.207 c 0,2.261 -1.52,3.363 -3.439,3.363 -1.995,0 -2.717,-1.102 -2.85,-2.565 -0.019,-0.209 -0.038,-0.266 -0.133,-0.266 -0.095,0 -0.133,0.095 -0.152,0.285 -0.057,0.418 -0.133,1.482 -0.133,2.375 0,0.228 0.038,0.361 0.304,0.532 0.399,0.228 1.539,0.456 2.318,0.456 3.382,0 5.681,-2.223 5.681,-4.883 0,-2.204 -1.938,-3.363 -3.135,-3.648 l 0,-0.095 c 0.589,-0.266 2.546,-1.52 2.546,-3.42 0,-0.95 -0.665,-2.85 -3.762,-2.85 -1.425,0 -2.508,0.323 -3.078,0.646 -0.247,0.133 -0.247,0.228 -0.247,0.399 0,0.437 0.057,1.292 0.133,1.9 0.019,0.171 0.076,0.209 0.133,0.209 0.057,0 0.133,-0.038 0.133,-0.228 0,-1.463 1.007,-2.242 2.394,-2.242 2.242,0 2.736,1.767 2.736,2.565 0,2.223 -2.09,3.135 -3.021,3.306 -0.247,0.038 -0.437,0.095 -0.437,0.228 0,0.133 0.133,0.171 0.494,0.247 1.235,0.247 3.515,1.14 3.515,3.686"
                   style="fill:#000000;fill-opacity:1;fill-rule:nonzero;stroke:none"
                   id="path3287"
                   inkscape:connector-curvature="0" /></g><g
                 id="g3289"
                 transform="translate(409.23,325)"
                 style="fill:#000000"><path
                   d="m 44.077,-26.41 c -0.038,-0.361 -0.095,-0.513 -0.228,-0.513 -0.133,0 -0.209,0.133 -0.285,0.304 l -5.586,11.932 -5.814,-11.951 c -0.095,-0.209 -0.171,-0.285 -0.285,-0.285 -0.114,0 -0.19,0.133 -0.209,0.342 l -1.368,12.388 c -0.076,0.722 -0.133,1.463 -0.76,1.577 -0.285,0.057 -0.418,0.057 -0.57,0.057 -0.095,0 -0.19,0.038 -0.19,0.095 0,0.133 0.133,0.171 0.323,0.171 0.513,0 1.425,-0.057 1.596,-0.057 0.152,0 1.064,0.057 1.767,0.057 0.228,0 0.342,-0.038 0.342,-0.171 0,-0.057 -0.076,-0.095 -0.152,-0.095 -0.114,0 -0.399,-0.019 -0.722,-0.095 -0.285,-0.057 -0.494,-0.304 -0.494,-0.589 0,-0.323 0,-0.665 0.019,-0.969 l 0.76,-8.816 0.076,0 c 0.209,0.513 2.337,5.073 2.508,5.415 0.095,0.19 1.729,3.477 2.223,4.408 0.361,0.684 0.456,0.874 0.589,0.874 0.171,0 0.228,-0.171 0.627,-1.007 l 4.655,-9.88 0.057,0 0.912,9.861 c 0.038,0.342 0.019,0.665 -0.076,0.684 -0.095,0.019 -0.133,0.057 -0.133,0.133 0,0.095 0.095,0.152 0.532,0.19 0.703,0.057 2.755,0.076 3.173,0.076 0.228,0 0.399,-0.057 0.399,-0.171 0,-0.076 -0.057,-0.095 -0.152,-0.095 -0.19,0 -0.684,0 -1.235,-0.171 -0.817,-0.266 -0.95,-1.33 -1.026,-2.014 L 44.077,-26.41"
                   style="fill:#000000;fill-opacity:1;fill-rule:nonzero;stroke:none"
                   id="path3291"
                   inkscape:connector-curvature="0" /></g><g
                 id="g3293"
                 transform="translate(409.23,325)"
                 style="fill:#000000"><path
                   d="m 49.773,-14.079 c -0.323,0.817 -0.646,1.387 -1.406,1.482 -0.133,0.019 -0.38,0.038 -0.494,0.038 -0.076,0 -0.152,0.057 -0.152,0.133 0,0.095 0.114,0.133 0.323,0.133 0.684,0 1.52,-0.057 1.691,-0.057 0.19,0 1.102,0.057 1.501,0.057 0.152,0 0.247,-0.038 0.247,-0.133 0,-0.076 -0.038,-0.133 -0.171,-0.133 l -0.152,0 c -0.285,0 -0.57,-0.114 -0.57,-0.437 0,-0.285 0.095,-0.684 0.247,-1.083 l 0.95,-2.584 c 0.038,-0.095 0.095,-0.133 0.171,-0.133 l 3.857,0 c 0.095,0 0.114,0.019 0.152,0.095 l 1.501,3.705 c 0.114,0.266 -0.057,0.399 -0.152,0.437 -0.076,0.038 -0.114,0.038 -0.114,0.114 0,0.095 0.266,0.095 0.589,0.114 1.159,0.038 2.394,0.038 2.641,0.038 0.19,0 0.38,-0.038 0.38,-0.133 0,-0.095 -0.114,-0.133 -0.209,-0.133 -0.171,0 -0.418,-0.019 -0.665,-0.095 -0.361,-0.114 -0.817,-0.323 -1.425,-1.767 -1.026,-2.451 -3.705,-9.12 -4.009,-9.804 -0.171,-0.361 -0.228,-0.589 -0.399,-0.589 -0.114,0 -0.19,0.095 -0.399,0.627 l -3.933,10.108 m 2.413,-3.382 c -0.057,0 -0.076,-0.038 -0.057,-0.114 l 1.558,-4.427 c 0.095,-0.247 0.19,-0.247 0.285,0 l 1.653,4.427 c 0.019,0.076 0.019,0.114 -0.057,0.114 l -3.382,0"
                   style="fill:#000000;fill-opacity:1;fill-rule:nonzero;stroke:none"
                   id="path3295"
                   inkscape:connector-curvature="0" /></g><g
                 id="g3297"
                 transform="translate(409.23,325)"
                 style="fill:#000000"><path
                   d="m 64.024,-15.105 c 0,0.266 0,0.95 -0.038,1.615 -0.038,0.475 -0.152,0.779 -0.494,0.855 -0.152,0.038 -0.342,0.076 -0.494,0.076 -0.095,0 -0.133,0.076 -0.133,0.133 0,0.095 0.076,0.133 0.266,0.133 0.494,0 1.558,-0.057 1.634,-0.057 0.095,0 1.178,0.057 2.109,0.057 0.171,0 0.266,-0.057 0.266,-0.133 0,-0.057 -0.038,-0.133 -0.133,-0.133 -0.152,0 -0.532,-0.038 -0.76,-0.076 -0.494,-0.076 -0.608,-0.38 -0.646,-0.855 -0.057,-0.665 -0.057,-1.349 -0.057,-1.615 l 0,-1.387 c 0,-0.532 -0.076,-1.045 0.209,-1.615 0.342,-0.684 2.698,-4.484 3.249,-5.13 0.361,-0.437 0.513,-0.608 0.836,-0.798 0.266,-0.152 0.589,-0.209 0.779,-0.209 0.133,0 0.209,-0.095 0.209,-0.171 0,-0.057 -0.095,-0.095 -0.209,-0.095 -0.323,0 -1.52,0.038 -1.634,0.038 -0.133,0 -0.722,-0.038 -1.159,-0.038 -0.171,0 -0.266,0.038 -0.266,0.095 0,0.076 0.095,0.152 0.247,0.19 0.19,0.057 0.266,0.19 0.266,0.418 0,0.209 -0.076,0.475 -0.285,0.836 -0.304,0.532 -2.394,3.99 -2.736,4.674 l -3.04,-5.035 c -0.114,-0.209 -0.228,-0.399 -0.228,-0.627 0,-0.133 0.076,-0.209 0.209,-0.266 0.152,-0.057 0.266,-0.114 0.266,-0.171 0,-0.076 -0.038,-0.114 -0.228,-0.114 -0.646,0 -1.33,0.038 -1.444,0.038 -0.076,0 -1.33,-0.038 -1.653,-0.038 -0.152,0 -0.209,0.038 -0.209,0.114 0,0.076 0.076,0.152 0.171,0.152 0.133,0 0.456,0.076 0.703,0.228 0.304,0.209 0.703,0.57 1.102,1.178 0.57,0.855 2.831,4.446 2.964,4.693 0.247,0.456 0.361,0.779 0.361,1.653 l 0,1.387"
                   style="fill:#000000;fill-opacity:1;fill-rule:nonzero;stroke:none"
                   id="path3299"
                   inkscape:connector-curvature="0" /></g><g
                 id="g3301"
                 transform="translate(409.23,325)"
                 style="fill:#000000"><path
                   d="m 74.591,-19.836 c 0,-2.508 0,-2.964 0.019,-3.477 0.038,-0.57 0.133,-0.798 0.589,-0.893 0.19,-0.038 0.304,-0.038 0.418,-0.038 0.057,0 0.133,-0.076 0.133,-0.133 0,-0.095 -0.076,-0.133 -0.266,-0.133 -0.513,0 -1.596,0.038 -1.672,0.038 -0.095,0 -1.14,-0.038 -1.691,-0.038 -0.19,0 -0.266,0.038 -0.266,0.133 0,0.057 0.057,0.133 0.133,0.133 0.114,0 0.323,0.019 0.513,0.057 0.361,0.076 0.494,0.323 0.532,0.874 0.038,0.513 0.038,0.969 0.038,3.477 l 0,2.85 c 0,1.558 -0.019,2.831 -0.095,3.496 -0.057,0.475 -0.114,0.779 -0.437,0.855 -0.152,0.038 -0.361,0.076 -0.513,0.076 -0.095,0 -0.133,0.076 -0.133,0.133 0,0.095 0.095,0.133 0.266,0.133 0.513,0 1.558,-0.057 1.653,-0.057 0.076,0 1.159,0.057 2.09,0.057 0.19,0 0.266,-0.057 0.266,-0.133 0,-0.057 -0.038,-0.133 -0.133,-0.133 -0.152,0 -0.513,-0.038 -0.76,-0.076 -0.494,-0.076 -0.551,-0.38 -0.608,-0.855 -0.076,-0.665 -0.076,-1.938 -0.076,-3.496 l 0,-2.85"
                   style="fill:#000000;fill-opacity:1;fill-rule:nonzero;stroke:none"
                   id="path3303"
                   inkscape:connector-curvature="0" /></g><g
                 id="g3305"
                 transform="translate(409.23,325)"
                 style="fill:#000000"><path
                   d="m 81.482,-12.084 c 0.912,0 1.957,-0.114 2.66,-0.57 1.197,-0.779 1.558,-1.805 1.558,-2.755 0,-1.387 -0.703,-2.508 -2.736,-3.895 l -0.475,-0.323 c -1.653,-1.121 -2.166,-1.71 -2.166,-2.736 0,-1.14 1.007,-1.748 2.223,-1.748 1.501,0 2.052,0.608 2.166,0.798 0.095,0.171 0.228,0.608 0.247,0.798 0.019,0.133 0.038,0.209 0.152,0.209 0.114,0 0.133,-0.114 0.133,-0.361 0,-1.102 0.076,-1.634 0.076,-1.71 0,-0.095 -0.038,-0.114 -0.171,-0.114 -0.133,0 -0.266,0 -0.589,-0.076 -0.399,-0.095 -1.064,-0.19 -1.729,-0.19 -2.204,0 -3.705,1.14 -3.705,3.04 0,1.121 0.589,2.109 2.394,3.458 l 0.76,0.57 c 1.482,1.102 2.109,1.653 2.109,2.812 0,1.216 -0.855,2.147 -2.508,2.147 -1.121,0 -2.375,-0.418 -2.641,-1.596 -0.057,-0.228 -0.057,-0.456 -0.057,-0.589 0,-0.133 -0.057,-0.19 -0.152,-0.19 -0.095,0 -0.133,0.095 -0.133,0.266 -0.019,0.266 -0.095,0.912 -0.095,1.71 0,0.437 0.019,0.494 0.247,0.608 0.684,0.323 1.653,0.437 2.432,0.437"
                   style="fill:#000000;fill-opacity:1;fill-rule:nonzero;stroke:none"
                   id="path3307"
                   inkscape:connector-curvature="0" /></g><g
                 id="g3309"
                 transform="translate(409.23,325)"
                 style="fill:#000000"><path
                   d="m 101.748,-12.35 c 0.798,0 1.083,-0.057 1.235,-0.57 0.19,-0.646 0.57,-2.128 0.57,-2.489 0,-0.114 -0.019,-0.285 -0.114,-0.285 -0.114,0 -0.171,0.076 -0.228,0.285 -0.228,1.007 -0.836,1.691 -2.223,1.824 -0.684,0.076 -2.926,0.095 -3.249,0.095 l -1.387,0 c -0.095,0 -0.133,-0.057 -0.038,-0.133 2.356,-2.014 6.612,-5.529 6.612,-9.462 0,-2.014 -1.425,-3.838 -4.294,-3.838 -1.539,0 -2.641,0.342 -3.344,0.665 -0.171,0.114 -0.19,0.171 -0.19,0.285 0,0.589 0.095,2.166 0.114,2.337 0.019,0.171 0.076,0.247 0.152,0.247 0.095,0 0.171,-0.114 0.171,-0.285 0,-0.741 0.209,-1.406 0.665,-1.843 0.551,-0.513 1.121,-0.722 2.033,-0.722 1.273,0 3.021,0.798 3.021,3.515 0,3.648 -2.831,6.27 -6.631,9.652 -0.152,0.133 -0.342,0.304 -0.342,0.456 0,0.152 0.133,0.266 0.266,0.266 l 7.201,0"
                   style="fill:#000000;fill-opacity:1;fill-rule:nonzero;stroke:none"
                   id="path3311"
                   inkscape:connector-curvature="0" /></g><g
                 id="g3313"
                 transform="translate(409.23,325)"
                 style="fill:#000000"><path
                   d="m 105.25,-19.038 c 0,3.401 1.501,7.011 4.465,7.011 3.097,0 4.788,-3.515 4.788,-7.885 0,-2.489 -1.007,-7.011 -4.484,-7.011 -3.04,0 -4.769,3.401 -4.769,7.885 m 1.539,-0.779 c 0,-3.857 1.083,-6.403 2.85,-6.403 2.147,0 3.325,3.515 3.325,7.125 0,3.743 -1.159,6.365 -2.869,6.365 -2.337,0 -3.306,-3.762 -3.306,-7.087"
                   style="fill:#000000;fill-opacity:1;fill-rule:nonzero;stroke:none"
                   id="path3315"
                   inkscape:connector-curvature="0" /></g><g
                 id="g3317"
                 transform="translate(409.23,325)"
                 style="fill:#000000"><path
                   d="m 121.767,-21.584 c 0.019,-2.907 0.095,-4.788 0.095,-4.94 0,-0.19 -0.057,-0.399 -0.209,-0.399 -0.133,0 -0.285,0.114 -0.456,0.228 l -3.667,2.451 c -0.076,0.057 -0.133,0.133 -0.133,0.19 0,0.076 0.076,0.171 0.133,0.171 0.076,0 0.133,-0.019 0.228,-0.076 0.475,-0.228 1.805,-0.912 2.166,-0.912 0.304,0 0.342,0.209 0.342,0.589 0,1.045 0,1.862 0,2.888 l 0,3.325 c 0,1.9 0,3.534 -0.057,4.37 -0.038,0.589 -0.171,0.874 -0.798,0.988 -0.361,0.076 -1.292,0.133 -1.52,0.133 -0.076,0 -0.152,0.076 -0.152,0.152 0,0.095 0.114,0.133 0.323,0.133 1.216,0 2.812,-0.057 2.907,-0.057 0.095,0 1.311,0.057 2.736,0.057 0.228,0 0.323,-0.038 0.323,-0.133 0,-0.076 -0.095,-0.152 -0.171,-0.152 -0.171,0 -0.969,-0.057 -1.254,-0.114 -0.608,-0.133 -0.684,-0.418 -0.76,-1.007 -0.095,-0.836 -0.114,-2.47 -0.095,-4.37 l 0.019,-3.515"
                   style="fill:#000000;fill-opacity:1;fill-rule:nonzero;stroke:none"
                   id="path3319"
                   inkscape:connector-curvature="0" /></g><g
                 id="g3321"
                 transform="translate(409.23,325)"
                 style="fill:#000000"><path
                   d="m 129.734,-25.403 3.591,0 c 1.501,0 1.672,0.494 1.672,1.216 0,0.133 0.038,0.247 0.114,0.247 0.076,0 0.133,-0.114 0.152,-0.209 0.19,-1.387 0.247,-2.223 0.247,-2.394 0,-0.152 -0.057,-0.19 -0.133,-0.19 -0.057,0 -0.171,0.057 -0.399,0.076 -0.228,0.038 -0.57,0.057 -1.102,0.057 l -4.465,0 c -0.209,0 -0.342,0.057 -0.361,0.247 l -0.437,4.845 c -0.019,0.209 0.114,0.323 0.494,0.342 1.463,0.076 4.826,1.558 4.826,4.617 0,2.622 -1.748,3.686 -3.344,3.686 -1.387,0 -2.603,-0.418 -2.603,-2.451 0,-0.228 -0.038,-0.323 -0.152,-0.323 -0.076,0 -0.133,0.152 -0.171,0.342 -0.095,0.608 -0.076,1.748 -0.076,2.394 0,0.19 0.038,0.361 0.361,0.532 0.475,0.266 1.178,0.342 1.748,0.342 3.838,0 5.7,-2.793 5.7,-5.244 0,-3.382 -3.515,-4.845 -5.928,-5.206 l 0.266,-2.926"
                   style="fill:#000000;fill-opacity:1;fill-rule:nonzero;stroke:none"
                   id="path3323"
                   inkscape:connector-curvature="0" /></g></g></g></g></g></g></g></svg>